<svg xmlns="http://www.w3.org/2000/svg" viewBox="0 0 24 24" width="16" height="16"><path fill="#2496ED" d="M13.98 11.08h2.12V9.01h-2.12v2.07Zm-2.49 0h2.12V9.01h-2.12v2.07Zm-2.49 0h2.12V9.01H9v2.07Zm-2.49 0h2.12V9.01H6.51v2.07Zm-2.49 0H6.14V9.01H4.02v2.07Zm2.49-2.44h2.12V6.57H6.51v2.07Zm2.49 0h2.12V6.57H9v2.07Zm2.49 0h2.12V6.57h-2.12v2.07Zm0-2.44h2.12V4.13h-2.12V6.2Zm10.7 4.08c-.42-.28-.97-.52-1.63-.52-.28 0-.56.03-.83.1-.1-1.25-1.08-1.85-1.15-1.9l-.22-.14-.15.2c-.2.25-.35.53-.45.83-.2.58-.16 1.1.08 1.56-.5.28-1.33.35-1.5.35H2.35a.62.62 0 0 0-.62.64c.01 1.19.17 2.37.52 3.5.4 1.25.99 2.18 1.78 2.78 1.15.86 3.05 1.33 5.22 1.33.97 0 1.97-.09 2.97-.27a11.4 11.4 0 0 0 3.36-1.18c.88-.51 1.67-1.16 2.35-1.92a11.3 11.3 0 0 0 2.05-3.23h.18c1.13 0 1.82-.45 2.2-.83.28-.26.49-.6.6-.96l.08-.25-.19-.13-.22-.07Z"/></svg>