<svg xmlns="http://www.w3.org/2000/svg" viewBox="0 0 24 24" width="16" height="16"><path fill="#00ADD8" d="M1.8 9.4c-.1 0-.1-.1 0-.2l.4-.3c0-.1.1-.1.2-.1h6.5c.1 0 .1.1.1.2l-.3.3c0 .1-.1.1-.2.1l-6.7.1ZM.1 11c-.1 0-.1-.1 0-.2l.4-.3c0-.1.1-.1.2-.1h8.4c.1 0 .2.1.1.2l-.2.3c0 .1-.1.1-.2.1L.1 11Zm2.7 1.6c-.1 0-.1-.1 0-.2l.3-.3c0-.1.1-.1.2-.1h3.5c.1 0 .2.1.2.2l-.1.3c0 .1-.1.1-.2.1l-3.9.1Zm17.1-.6c-1.5.4-2.5.7-4 1.1-.4.1-.4.1-.8-.2-.4-.4-.7-.6-1.2-.8-.9-.3-1.7-.2-2.5.3-.9.6-1.4 1.5-1.3 2.6.1 1 .6 1.9 1.5 2.4.8.5 1.6.6 2.5.3.6-.2 1.2-.6 1.6-1.1.1-.1.2-.3.3-.5h-2.6c-.3 0-.4-.2-.3-.4.2-.5.5-1.1.7-1.6 0-.2.2-.3.4-.3h4.8c0 .4 0 .8-.1 1.2-.2 1-.6 2-1.2 2.8-.9 1.3-2.2 2.2-3.8 2.5-1.3.3-2.5.2-3.7-.4-1.1-.6-1.9-1.5-2.3-2.8-.5-1.5-.3-2.9.4-4.3.8-1.5 2-2.5 3.5-3.1 1.3-.5 2.6-.5 3.9-.1 1 .3 1.8.9 2.4 1.8.1.1 0 .2-.1.2l-1.6.4Z"/></svg>