<svg xmlns="http://www.w3.org/2000/svg" viewBox="0 0 24 24" width="16" height="16"><path fill="#F5A623" d="M12.04 2C10.52 2 9.65 2.87 9.65 4.4v3.18c0 1.5-.87 2.37-2.35 2.37H6.02v4.1h1.28c1.48 0 2.35.86 2.35 2.37v3.18c0 1.53.87 2.4 2.39 2.4h.75v-2.17h-.35c-.68 0-1.01-.34-1.01-1.02v-3.18c0-1.5-.6-2.49-1.83-2.82v-.62c1.22-.32 1.83-1.32 1.83-2.82V6.18c0-.68.33-1.01 1.01-1.01h.35V3h-.75Z"/><path fill="#F5A623" d="M11.96 22c1.52 0 2.39-.87 2.39-2.4v-3.18c0-1.5.87-2.37 2.35-2.37h1.28V10H16.7c-1.48 0-2.35-.87-2.35-2.37V4.45c0-1.53-.87-2.4-2.39-2.4h-.75v2.17h.35c.68 0 1.01.33 1.01 1.01v3.19c0 1.5.6 2.5 1.83 2.82v.62c-1.22.33-1.83 1.33-1.83 2.82v3.14c0 .68-.33 1.02-1.01 1.02h-.35V22h.75Z"/></svg>