<svg xmlns="http://www.w3.org/2000/svg" viewBox="0 0 24 24" width="16" height="16"><defs><linearGradient id="a" x1="12.5" x2="12.5" y1="2" y2="22" gradientUnits="userSpaceOnUse"><stop offset="0" stop-color="#387eb8"/><stop offset="1" stop-color="#366994"/></linearGradient><linearGradient id="b" x1="12.5" x2="12.5" y1="2" y2="22" gradientUnits="userSpaceOnUse"><stop offset="0" stop-color="#ffe052"/><stop offset="1" stop-color="#ffc331"/></linearGradient></defs><path fill="url(#a)" d="M11.9 2c-2.4 0-4.5.4-6.2 1.2C4 4 3 5.3 3 7.3v2.9c0 2 1.5 3.6 3.4 3.8h5.2c1.2 0 2.2 1 2.2 2.2v1.1c0 1.3-1 2.3-2.3 2.3H8.6c-1.4 0-2.5.5-3.3 1.4a5 5 0 0 0-1 3.1V7.3c0-1.8.6-3.3 1.8-4.3A7.3 7.3 0 0 1 11 2Zm-1.4 2.8a1 1 0 1 0 0 2 1 1 0 0 0 0-2Z"/><path fill="url(#b)" d="M12.1 22c2.4 0 4.5-.4 6.2-1.2C20 20 21 18.7 21 16.7v-2.9c0-2-1.5-3.6-3.4-3.8H12.4c-1.2 0-2.2-1-2.2-2.2V6.7c0-1.3 1-2.3 2.3-2.3h2.9c1.4 0 2.5-.5 3.3-1.4a5 5 0 0 0 1-3.1v16.8c0 1.8-.6 3.3-1.8 4.3a7.3 7.3 0 0 1-4.9 1Zm1.4-2.8a1 1 0 1 0 0-2 1 1 0 0 0 0 2Z"/></svg>