<svg xmlns="http://www.w3.org/2000/svg" viewBox="0 0 24 24" width="16" height="16"><path fill="#FF3E00" d="M20.42 4.5c-2.18-3.12-6.52-3.92-9.7-1.79L5.94 5.97c-1.46.98-2.4 2.5-2.6 4.2a5.06 5.06 0 0 0 .58 3.26A4.64 4.64 0 0 0 3 16.1c.1 2.5 1.72 4.75 4.1 5.65 2.38.9 5.08.32 6.87-1.49l3.04-2.03c1.46-.98 2.4-2.5 2.6-4.2.2-1.7-.28-3.4-1.34-4.72.6-.8.98-1.73 1.1-2.7.2-1.7-.28-3.4-1.34-4.72l2.4 2.6Z"/><path fill="#fff" d="M10.2 18.92c-1.45.36-3-.1-4.02-1.2-.73-.8-1.1-1.87-1-2.95.02-.23.07-.45.13-.67l.14-.42.38.28c.58.43 1.23.76 1.92.97l.18.05-.02.18c-.03.34.1.67.34.9.32.33.82.44 1.25.28l.22-.1 4.8-3.25.26-.18c.22-.2.34-.48.32-.77a1 1 0 0 0-.47-.76 1.1 1.1 0 0 0-1.25.03l-1.84 1.24a3.5 3.5 0 0 1-4.02.1 3.2 3.2 0 0 1-1.52-2.45c-.08-.9.2-1.8.77-2.52a3.3 3.3 0 0 1 1.37-1.02l4.8-3.24a3.5 3.5 0 0 1 4.02-.1c.72.48 1.23 1.22 1.4 2.07a3.2 3.2 0 0 1-.4 2.33l-.13.19-.38-.28a6.7 6.7 0 0 0-1.92-.97l-.18-.05.02-.18c.03-.34-.1-.67-.34-.9a1.1 1.1 0 0 0-1.25-.28l-.22.1-4.8 3.25a1 1 0 0 0-.32.77c.04.34.22.65.5.83.37.29.87.37 1.3.2l.18-.08 1.83-1.24c.6-.4 1.28-.64 1.98-.71a3.5 3.5 0 0 1 2.04.62c.72.48 1.23 1.22 1.4 2.07.18.92-.06 1.88-.64 2.62a3.3 3.3 0 0 1-1.36 1.02l-4.8 3.24c-.6.4-1.3.65-2 .72Z"/></svg>