<svg xmlns="http://www.w3.org/2000/svg" viewBox="0 0 168 168" width="168" height="168"><circle cx="84" cy="84" r="80" fill="none" stroke="#1b1a17" stroke-width="0.9"/><circle cx="84" cy="84" r="77" fill="none" stroke="#1b1a17" stroke-width="0.45"/><ellipse cx="84" cy="84" rx="34" ry="70" fill="none" stroke="#1b1a17" stroke-width="0.5" opacity="0.7" transform="rotate(0.00 84 84)"/><ellipse cx="84" cy="84" rx="34" ry="70" fill="none" stroke="#1b1a17" stroke-width="0.5" opacity="0.7" transform="rotate(25.71 84 84)"/><ellipse cx="84" cy="84" rx="34" ry="70" fill="none" stroke="#1b1a17" stroke-width="0.5" opacity="0.7" transform="rotate(51.43 84 84)"/><ellipse cx="84" cy="84" rx="34" ry="70" fill="none" stroke="#1b1a17" stroke-width="0.5" opacity="0.7" transform="rotate(77.14 84 84)"/><ellipse cx="84" cy="84" rx="34" ry="70" fill="none" stroke="#1b1a17" stroke-width="0.5" opacity="0.7" transform="rotate(102.86 84 84)"/><ellipse cx="84" cy="84" rx="34" ry="70" fill="none" stroke="#1b1a17" stroke-width="0.5" opacity="0.7" transform="rotate(128.57 84 84)"/><ellipse cx="84" cy="84" rx="34" ry="70" fill="none" stroke="#1b1a17" stroke-width="0.5" opacity="0.7" transform="rotate(154.29 84 84)"/><ellipse cx="84" cy="84" rx="34" ry="70" fill="none" stroke="#1b1a17" stroke-width="0.5" opacity="0.7" transform="rotate(180.00 84 84)"/><ellipse cx="84" cy="84" rx="34" ry="70" fill="none" stroke="#1b1a17" stroke-width="0.5" opacity="0.7" transform="rotate(205.71 84 84)"/><ellipse cx="84" cy="84" rx="34" ry="70" fill="none" stroke="#1b1a17" stroke-width="0.5" opacity="0.7" transform="rotate(231.43 84 84)"/><ellipse cx="84" cy="84" rx="34" ry="70" fill="none" stroke="#1b1a17" stroke-width="0.5" opacity="0.7" transform="rotate(257.14 84 84)"/><ellipse cx="84" cy="84" rx="34" ry="70" fill="none" stroke="#1b1a17" stroke-width="0.5" opacity="0.7" transform="rotate(282.86 84 84)"/><ellipse cx="84" cy="84" rx="34" ry="70" fill="none" stroke="#1b1a17" stroke-width="0.5" opacity="0.7" transform="rotate(308.57 84 84)"/><ellipse cx="84" cy="84" rx="34" ry="70" fill="none" stroke="#1b1a17" stroke-width="0.5" opacity="0.7" transform="rotate(334.29 84 84)"/><ellipse cx="84" cy="84" rx="26" ry="62" fill="none" stroke="#1b1a17" stroke-width="0.5" opacity="0.7" transform="rotate(12.86 84 84)"/><ellipse cx="84" cy="84" rx="26" ry="62" fill="none" stroke="#1b1a17" stroke-width="0.5" opacity="0.7" transform="rotate(38.57 84 84)"/><ellipse cx="84" cy="84" rx="26" ry="62" fill="none" stroke="#1b1a17" stroke-width="0.5" opacity="0.7" transform="rotate(64.29 84 84)"/><ellipse cx="84" cy="84" rx="26" ry="62" fill="none" stroke="#1b1a17" stroke-width="0.5" opacity="0.7" transform="rotate(90.00 84 84)"/><ellipse cx="84" cy="84" rx="26" ry="62" fill="none" stroke="#1b1a17" stroke-width="0.5" opacity="0.7" transform="rotate(115.71 84 84)"/><ellipse cx="84" cy="84" rx="26" ry="62" fill="none" stroke="#1b1a17" stroke-width="0.5" opacity="0.7" transform="rotate(141.43 84 84)"/><ellipse cx="84" cy="84" rx="26" ry="62" fill="none" stroke="#1b1a17" stroke-width="0.5" opacity="0.7" transform="rotate(167.14 84 84)"/><ellipse cx="84" cy="84" rx="26" ry="62" fill="none" stroke="#1b1a17" stroke-width="0.5" opacity="0.7" transform="rotate(192.86 84 84)"/><ellipse cx="84" cy="84" rx="26" ry="62" fill="none" stroke="#1b1a17" stroke-width="0.5" opacity="0.7" transform="rotate(218.57 84 84)"/><ellipse cx="84" cy="84" rx="26" ry="62" fill="none" stroke="#1b1a17" stroke-width="0.5" opacity="0.7" transform="rotate(244.29 84 84)"/><ellipse cx="84" cy="84" rx="26" ry="62" fill="none" stroke="#1b1a17" stroke-width="0.5" opacity="0.7" transform="rotate(270.00 84 84)"/><ellipse cx="84" cy="84" rx="26" ry="62" fill="none" stroke="#1b1a17" stroke-width="0.5" opacity="0.7" transform="rotate(295.71 84 84)"/><ellipse cx="84" cy="84" rx="26" ry="62" fill="none" stroke="#1b1a17" stroke-width="0.5" opacity="0.7" transform="rotate(321.43 84 84)"/><ellipse cx="84" cy="84" rx="26" ry="62" fill="none" stroke="#1b1a17" stroke-width="0.5" opacity="0.7" transform="rotate(347.14 84 84)"/><circle cx="84" cy="84" r="24" fill="#f7f5f0" stroke="#1b1a17" stroke-width="0.9"/><circle cx="84" cy="84" r="21" fill="none" stroke="#1b1a17" stroke-width="0.45"/><text x="84" y="93" text-anchor="middle" font-family="Georgia, 'Times New Roman', serif" font-size="27" fill="#1b1a17">&#182;</text></svg>